<svg width="100" height="16" viewBox="0 0 100 16" fill="none" xmlns="http://www.w3.org/2000/svg">
<g clip-path="url(#clip0_2_66)">
<path d="M3.612 15.443C3.226 15.641 2.788 15.294 2.866 14.851L3.696 10.121L0.172996 6.76501C-0.156004 6.45101 0.0149962 5.87701 0.455996 5.81501L5.354 5.11901L7.538 0.792012C7.735 0.402012 8.268 0.402012 8.465 0.792012L10.649 5.11901L15.547 5.81501C15.988 5.87701 16.159 6.45101 15.829 6.76501L12.307 10.121L13.137 14.851C13.215 15.294 12.777 15.641 12.391 15.443L8 13.187L3.611 15.443H3.612Z" fill="#FFAC4A"/>
</g>
<g clip-path="url(#clip1_2_66)">
<path d="M24.612 15.443C24.226 15.641 23.788 15.294 23.866 14.851L24.696 10.121L21.173 6.76501C20.844 6.45101 21.015 5.87701 21.456 5.81501L26.354 5.11901L28.538 0.792012C28.735 0.402012 29.268 0.402012 29.465 0.792012L31.649 5.11901L36.547 5.81501C36.988 5.87701 37.159 6.45101 36.829 6.76501L33.307 10.121L34.137 14.851C34.215 15.294 33.777 15.641 33.391 15.443L29 13.187L24.611 15.443H24.612Z" fill="#FFAC4A"/>
</g>
<g clip-path="url(#clip2_2_66)">
<path d="M45.612 15.443C45.226 15.641 44.788 15.294 44.866 14.851L45.696 10.121L42.173 6.76501C41.844 6.45101 42.015 5.87701 42.456 5.81501L47.354 5.11901L49.538 0.792012C49.735 0.402012 50.268 0.402012 50.465 0.792012L52.649 5.11901L57.547 5.81501C57.988 5.87701 58.159 6.45101 57.829 6.76501L54.307 10.121L55.137 14.851C55.215 15.294 54.777 15.641 54.391 15.443L50 13.187L45.611 15.443H45.612Z" fill="#FFAC4A"/>
</g>
<g clip-path="url(#clip3_2_66)">
<path d="M66.612 15.443C66.226 15.641 65.788 15.294 65.866 14.851L66.696 10.121L63.173 6.76501C62.844 6.45101 63.015 5.87701 63.456 5.81501L68.354 5.11901L70.538 0.792012C70.735 0.402012 71.268 0.402012 71.465 0.792012L73.649 5.11901L78.547 5.81501C78.988 5.87701 79.159 6.45101 78.829 6.76501L75.307 10.121L76.137 14.851C76.215 15.294 75.777 15.641 75.391 15.443L71 13.187L66.611 15.443H66.612Z" fill="#FFAC4A"/>
</g>
<g clip-path="url(#clip4_2_66)">
<path d="M87.612 15.443C87.226 15.641 86.788 15.294 86.866 14.851L87.696 10.121L84.173 6.76501C83.844 6.45101 84.015 5.87701 84.456 5.81501L89.354 5.11901L91.538 0.792012C91.735 0.402012 92.268 0.402012 92.465 0.792012L94.649 5.11901L99.547 5.81501C99.988 5.87701 100.159 6.45101 99.829 6.76501L96.307 10.121L97.137 14.851C97.215 15.294 96.777 15.641 96.391 15.443L92 13.187L87.611 15.443H87.612Z" fill="#FFAC4A"/>
</g>
<defs>
<clipPath id="clip0_2_66">
<rect width="16" height="16" fill="white"/>
</clipPath>
<clipPath id="clip1_2_66">
<rect width="16" height="16" fill="white" transform="translate(21)"/>
</clipPath>
<clipPath id="clip2_2_66">
<rect width="16" height="16" fill="white" transform="translate(42)"/>
</clipPath>
<clipPath id="clip3_2_66">
<rect width="16" height="16" fill="white" transform="translate(63)"/>
</clipPath>
<clipPath id="clip4_2_66">
<rect width="16" height="16" fill="white" transform="translate(84)"/>
</clipPath>
</defs>
</svg>
