<svg width="100" height="114" viewBox="0 0 100 114" fill="none" xmlns="http://www.w3.org/2000/svg">
<path d="M91.032 33H8.46794C6.33368 33.0024 4.28753 33.8513 2.77838 35.3604C1.26924 36.8696 0.420342 38.9157 0.417938 41.05V104.624C0.420561 106.978 1.35651 109.234 3.02045 110.897C4.68439 112.561 6.94042 113.497 9.29358 113.5H90.2064C92.5596 113.497 94.8156 112.561 96.4795 110.897C98.1435 109.234 99.0794 106.978 99.082 104.624V41.05C99.0796 38.9157 98.2307 36.8696 96.7216 35.3604C95.2124 33.8513 93.1663 33.0024 91.032 33ZM96.1923 41.05V50.696H40.5755L47.5786 35.8897H91.032C92.4002 35.8913 93.7118 36.4354 94.6792 37.4028C95.6466 38.3702 96.1908 39.6819 96.1923 41.05ZM8.46794 35.8897H44.3833L37.3786 50.696H3.30768V41.05C3.30921 39.6819 3.85337 38.3702 4.82078 37.4028C5.78818 36.4354 7.09982 35.8913 8.46794 35.8897ZM20.8104 95.2946L14.3605 88.7217L19.2401 82.6293L27.0762 87.4865C27.3362 87.6478 27.6406 87.7223 27.9457 87.6995C28.2508 87.6766 28.5407 87.5575 28.7738 87.3594C33.0158 83.7519 38.1166 81.2994 43.5833 80.239C43.8839 80.181 44.1584 80.0289 44.3672 79.8049C44.5759 79.5809 44.7082 79.2964 44.745 78.9923L45.8455 69.8484H53.6544L54.7559 78.9956C54.7923 79.2996 54.9244 79.5842 55.133 79.8083C55.3417 80.0323 55.6161 80.1843 55.9167 80.2424C61.3834 81.3027 66.4842 83.7552 70.7262 87.3627C70.9594 87.5606 71.2493 87.6795 71.5543 87.7024C71.8593 87.7252 72.1637 87.6508 72.4237 87.4898L80.2599 82.6326L85.1394 88.725L78.6895 95.2946C78.4755 95.5128 78.3362 95.7932 78.2917 96.0956C78.2472 96.398 78.2998 96.7067 78.4418 96.9773C80.6633 101.192 81.9181 105.85 82.1151 110.61H72.0646C71.6994 104.94 69.1896 99.6221 65.0449 95.7358C60.9003 91.8495 55.4317 89.6866 49.75 89.6866C44.0683 89.6866 38.5997 91.8495 34.4551 95.7358C30.3104 99.6221 27.8006 104.94 27.4354 110.61H17.3849C17.5826 105.851 18.8377 101.195 21.059 96.9806C21.2017 96.7095 21.2546 96.4001 21.2099 96.097C21.1652 95.794 21.0253 95.5129 20.8104 95.2946ZM69.1674 110.61H30.3326C30.6945 105.708 32.8973 101.124 36.4989 97.7784C40.1005 94.4328 44.8343 92.5735 49.75 92.5735C54.6657 92.5735 59.3994 94.4328 63.001 97.7784C66.6026 101.124 68.8055 105.708 69.1674 110.61ZM90.2064 110.61H85.0049C84.8219 105.739 83.6201 100.961 81.4769 96.5826L88.0994 89.8338C88.3469 89.5817 88.4934 89.2477 88.5112 88.8948C88.529 88.542 88.4169 88.1949 88.196 87.9192L81.7147 79.8279C81.4941 79.552 81.18 79.3665 80.8319 79.3066C80.4838 79.2466 80.1258 79.3164 79.8256 79.5026L71.7814 84.4886C67.6022 81.1467 62.7179 78.7986 57.4978 77.6218L56.37 68.2309C56.3276 67.8801 56.1582 67.557 55.8938 67.3226C55.6294 67.0882 55.2884 66.9587 54.935 66.9586H44.565C44.2116 66.9587 43.8705 67.0882 43.6061 67.3226C43.3418 67.557 43.1724 67.8801 43.13 68.2309L41.9997 77.6209C36.7796 78.7977 31.8953 81.1459 27.7161 84.4878L19.6719 79.5018C19.3717 79.3155 19.0137 79.2458 18.6656 79.3058C18.3175 79.3657 18.0034 79.5512 17.7828 79.8271L11.3015 87.9183C11.0806 88.194 10.9685 88.5412 10.9863 88.894C11.0041 89.2469 11.1506 89.5809 11.3981 89.833L18.0206 96.5818C15.8782 100.96 14.6772 105.739 14.4951 110.61H9.29358C7.70656 110.609 6.18504 109.977 5.06284 108.855C3.94065 107.733 3.30943 106.211 3.30768 104.624V53.5857H96.1923V104.624C96.1906 106.211 95.5593 107.733 94.4371 108.855C93.3149 109.977 91.7934 110.609 90.2064 110.61Z" fill="#FA6444"/>
<path d="M14.718 48.0398C15.657 48.0398 16.5749 47.7614 17.3556 47.2397C18.1363 46.7181 18.7448 45.9766 19.1041 45.1091C19.4634 44.2416 19.5574 43.2871 19.3743 42.3662C19.1911 41.4453 18.7389 40.5994 18.075 39.9354C17.4111 39.2715 16.5651 38.8193 15.6442 38.6361C14.7233 38.453 13.7688 38.547 12.9013 38.9063C12.0338 39.2656 11.2924 39.8741 10.7707 40.6548C10.249 41.4355 9.97061 42.3534 9.97061 43.2924C9.97192 44.5511 10.4725 45.7578 11.3626 46.6479C12.2526 47.5379 13.4594 48.0385 14.718 48.0398ZM14.718 41.4347C15.0855 41.4347 15.4446 41.5436 15.7501 41.7477C16.0556 41.9519 16.2937 42.242 16.4343 42.5815C16.5749 42.9209 16.6117 43.2944 16.54 43.6548C16.4684 44.0151 16.2914 44.3461 16.0316 44.6059C15.7718 44.8657 15.4408 45.0427 15.0805 45.1144C14.7201 45.186 14.3466 45.1492 14.0071 45.0086C13.6677 44.868 13.3776 44.6299 13.1734 44.3244C12.9693 44.0189 12.8604 43.6598 12.8604 43.2924C12.861 42.7999 13.0569 42.3277 13.4052 41.9795C13.7534 41.6313 14.2256 41.4353 14.718 41.4347ZM27.9745 48.0398C28.9135 48.0398 29.8314 47.7614 30.6121 47.2397C31.3928 46.7181 32.0013 45.9766 32.3606 45.1091C32.7199 44.2416 32.8139 43.2871 32.6308 42.3662C32.4476 41.4453 31.9954 40.5994 31.3315 39.9354C30.6675 39.2715 29.8216 38.8193 28.9007 38.6361C27.9798 38.453 27.0253 38.547 26.1578 38.9063C25.2903 39.2656 24.5488 39.8741 24.0272 40.6548C23.5055 41.4355 23.2271 42.3534 23.2271 43.2924C23.2284 44.5511 23.729 45.7578 24.619 46.6479C25.5091 47.5379 26.7158 48.0385 27.9745 48.0398ZM27.9745 41.4347C28.342 41.4347 28.7011 41.5436 29.0066 41.7477C29.3121 41.9519 29.5502 42.242 29.6908 42.5815C29.8314 42.9209 29.8682 43.2944 29.7965 43.6548C29.7249 44.0151 29.5479 44.3461 29.2881 44.6059C29.0283 44.8657 28.6973 45.0427 28.337 45.1144C27.9766 45.186 27.6031 45.1492 27.2636 45.0086C26.9242 44.868 26.6341 44.6299 26.4299 44.3244C26.2258 44.0189 26.1168 43.6598 26.1168 43.2924C26.1175 42.7999 26.3134 42.3277 26.6617 41.9795C27.0099 41.6313 27.482 41.4353 27.9745 41.4347ZM52.6579 44.7372H89.6012C89.9844 44.7372 90.3519 44.585 90.6229 44.314C90.8939 44.0431 91.0461 43.6756 91.0461 43.2924C91.0461 42.9092 90.8939 42.5416 90.6229 42.2707C90.3519 41.9997 89.9844 41.8475 89.6012 41.8475H52.6579C52.2747 41.8475 51.9072 41.9997 51.6362 42.2707C51.3653 42.5416 51.213 42.9092 51.213 43.2924C51.213 43.6756 51.3653 44.0431 51.6362 44.314C51.9072 44.585 52.2747 44.7372 52.6579 44.7372Z" fill="#FA6444"/>
<path d="M48.8901 0C80.3075 0 104.824 42.5644 89.1148 69.8377C73.4061 97.111 -9.82663 121.228 8.66532 69.8377C27.1573 18.4477 17.4726 0 48.8901 0Z" fill="#FA6444" fill-opacity="0.1"/>
</svg>
